<?xml version="1.0" standalone="no"?>
<!DOCTYPE svg PUBLIC "-//W3C//DTD SVG 20010904//EN"
 "http://www.w3.org/TR/2001/REC-SVG-20010904/DTD/svg10.dtd">
<svg version="1.0" xmlns="http://www.w3.org/2000/svg"
 width="768.000000pt" height="768.000000pt" viewBox="0 0 768.000000 768.000000"
 preserveAspectRatio="xMidYMid meet">
<metadata>
Created by potrace 1.11, written by Peter Selinger 2001-2013
</metadata>
<g transform="translate(0.000000,768.000000) scale(0.100000,-0.100000)"
fill="#000000" stroke="none">
<path d="M2258 7374 c-2 -1 -30 -5 -63 -8 -157 -14 -372 -95 -538 -202 -37
-24 -72 -44 -77 -44 -6 0 -10 -4 -10 -10 0 -5 -12 -16 -27 -24 -16 -8 -40 -26
-55 -40 -15 -14 -29 -26 -32 -26 -3 0 -18 -12 -34 -27 -16 -16 -42 -40 -58
-54 -48 -43 -177 -181 -214 -229 -19 -25 -40 -49 -47 -53 -7 -4 -13 -14 -13
-22 0 -7 -4 -15 -9 -17 -9 -3 -114 -159 -147 -218 -10 -19 -21 -37 -24 -40
-13 -13 -169 -319 -191 -375 -9 -22 -49 -121 -89 -220 -40 -99 -73 -184 -75
-190 -1 -5 -5 -17 -8 -25 -15 -41 -42 -116 -43 -120 0 -3 -4 -17 -8 -32 l-8
-28 -157 -1 c-86 0 -196 -1 -244 -1 l-88 -1 3 -321 3 -321 150 0 c90 -1 150
-5 150 -10 -1 -13 -16 -114 -21 -140 -2 -11 -6 -40 -9 -65 -3 -25 -8 -67 -11
-95 -11 -100 -10 -318 2 -408 17 -120 21 -138 50 -225 95 -286 284 -457 579
-529 64 -15 216 -17 1862 -17 985 -1 1795 -5 1799 -9 4 -3 6 -37 6 -74 -1 -38
-4 -214 -7 -393 -3 -179 -7 -453 -10 -610 -2 -157 -7 -445 -11 -640 -13 -686
-12 -746 15 -820 38 -103 125 -215 206 -267 79 -50 196 -98 265 -109 19 -3 54
-9 77 -13 22 -5 612 -8 1310 -7 l1268 1 2 320 2 320 -532 3 c-293 1 -536 3
-542 3 -5 0 -57 0 -115 0 -58 -1 -112 -1 -120 0 -8 0 -62 0 -120 0 -58 -1
-112 -1 -120 0 -8 0 -62 0 -120 0 -58 -1 -112 0 -120 0 -8 0 -161 -1 -340 -2
-179 -1 -337 -1 -352 0 l-28 1 5 253 c5 293 14 811 20 1179 2 142 6 262 9 267
4 5 2 12 -4 16 -6 4 -8 11 -4 16 3 6 7 119 9 252 2 133 4 258 4 277 l1 35 837
0 838 0 0 322 c0 316 0 322 -20 322 -11 0 -51 0 -90 0 -38 -1 -77 -1 -85 0 -8
0 -44 0 -80 0 -36 -1 -69 -1 -75 0 -5 0 -48 0 -95 0 -47 0 -96 1 -110 1 -14 1
-32 1 -40 1 -8 0 -40 0 -70 0 -30 0 -62 0 -70 0 -8 -1 -31 -1 -50 0 -19 1 -42
1 -50 0 -8 0 -40 0 -70 0 -30 0 -62 0 -70 0 -8 -1 -31 -1 -50 0 -19 1 -42 1
-50 0 -8 0 -40 0 -70 0 -30 0 -62 0 -70 0 -8 -1 -31 -1 -50 0 -19 1 -42 1 -50
0 -8 0 -40 0 -70 0 -30 0 -61 0 -67 0 -30 -2 -40 -2 -88 -2 -89 1 -119 2 -122
4 -5 6 -5 69 1 457 14 896 17 1086 19 1320 l2 245 -50 2 c-27 1 -172 4 -322 6
l-271 3 -2 -126 c-7 -477 -27 -1820 -29 -1878 l-1 -33 -57 0 c-32 1 -74 1 -93
2 -19 1 -42 1 -50 0 -8 0 -40 0 -70 0 -30 0 -62 0 -70 0 -8 -1 -31 -1 -50 0
-19 1 -42 1 -50 0 -8 0 -40 0 -70 0 -30 0 -61 0 -67 0 -29 -2 -40 -2 -83 -2
-64 1 -106 1 -180 0 -36 -1 -72 -1 -80 0 -8 0 -44 0 -80 0 -36 -1 -72 -1 -80
0 -8 0 -44 0 -80 0 -36 -1 -72 -1 -80 0 -8 0 -44 0 -80 0 -36 -1 -72 -1 -80 0
-8 0 -44 0 -80 0 -36 -1 -72 -1 -80 0 -8 0 -44 0 -80 0 -36 -1 -72 -1 -80 0
-8 0 -44 0 -80 0 -36 -1 -69 -1 -75 0 -5 0 -62 0 -125 0 -63 0 -131 1 -150 2
-19 0 -42 1 -50 0 -8 0 -40 0 -70 0 -30 0 -62 0 -70 0 -8 -1 -31 -1 -50 0 -19
1 -42 1 -50 0 -8 0 -40 0 -70 0 -30 0 -62 0 -70 0 -8 -1 -31 -1 -50 0 -19 1
-42 1 -50 0 -8 0 -40 0 -70 0 -30 0 -62 0 -70 0 -8 -1 -31 -1 -50 0 -19 1 -42
1 -50 0 -8 0 -40 0 -70 0 -30 0 -62 0 -70 0 -8 -1 -31 -1 -50 0 -19 1 -42 1
-50 0 -8 0 -58 0 -110 0 -52 1 -101 1 -107 0 -7 -1 -19 -1 -25 -2 -7 0 -47 1
-88 3 -98 6 -121 21 -151 101 -22 56 -24 78 -24 222 0 88 4 181 8 208 16 111
40 238 50 274 l12 39 1045 0 c575 0 1065 3 1090 7 25 5 52 9 60 11 32 5 99 30
179 68 71 34 98 54 182 139 55 55 99 104 99 109 0 5 6 15 14 22 22 22 92 151
119 219 22 56 50 150 63 214 21 102 21 334 0 438 -3 15 -8 39 -11 55 -35 174
-110 346 -244 562 -24 38 -47 70 -52 70 -5 0 -9 6 -9 13 0 23 -129 175 -255
302 -81 82 -244 215 -263 215 -6 0 -12 4 -14 9 -5 16 -188 106 -272 135 -75
26 -136 40 -216 52 -38 6 -228 12 -232 8z m192 -656 c142 -42 231 -100 372
-243 177 -179 314 -406 359 -593 16 -63 19 -201 7 -259 -14 -64 -60 -162 -92
-196 -61 -63 -46 -61 -415 -59 -185 0 -600 1 -922 1 l-586 1 5 25 c2 14 8 25
13 25 5 0 8 3 7 8 -2 7 17 68 38 117 7 17 12 33 13 38 0 4 8 22 18 40 9 17 17
34 18 37 3 33 160 344 216 428 16 24 29 45 29 47 0 8 76 115 116 164 40 49
196 206 230 231 10 8 37 29 59 45 22 17 49 35 60 42 44 26 167 83 180 83 8 0
17 5 20 10 4 6 10 8 14 6 4 -3 13 -1 20 4 14 8 192 7 221 -2z"/>
</g>
</svg>
